<?xml version="1.0" standalone="no"?><svg xmlns="http://www.w3.org/2000/svg" viewBox="0 0 1440 320"><path fill="#0099ff" fill-opacity="0.8" d="M0,128L20,128C40,128,80,128,120,122.7C160,117,200,107,240,90.7C280,75,320,53,360,58.7C400,64,440,96,480,96C520,96,560,64,600,69.3C640,75,680,117,720,112C760,107,800,53,840,58.7C880,64,920,128,960,138.7C1000,149,1040,107,1080,101.3C1120,96,1160,128,1200,149.3C1240,171,1280,181,1320,170.7C1360,160,1400,128,1420,112L1440,96L1440,320L1420,320C1400,320,1360,320,1320,320C1280,320,1240,320,1200,320C1160,320,1120,320,1080,320C1040,320,1000,320,960,320C920,320,880,320,840,320C800,320,760,320,720,320C680,320,640,320,600,320C560,320,520,320,480,320C440,320,400,320,360,320C320,320,280,320,240,320C200,320,160,320,120,320C80,320,40,320,20,320L0,320Z"></path></svg>